HIERARCHY
ROOT Hips
{
	OFFSET 0.000000 0.000000 0.000000
	CHANNELS 6 Xposition Yposition Zposition Zrotation Yrotation Xrotation 
	JOINT LowerBack
	{
		OFFSET 0.000000 0.000000 0.000000
		CHANNELS 3 Zrotation Yrotation Xrotation
		JOINT Spine
		{
			OFFSET 0.028270 2.035590 -0.193380
			CHANNELS 3 Zrotation Yrotation Xrotation
			JOINT Spine1
			{
				OFFSET 0.056720 2.048850 -0.042750
				CHANNELS 3 Zrotation Yrotation Xrotation
				JOINT Neck
				{
					OFFSET 0.000000 0.000000 0.000000
					CHANNELS 3 Zrotation Yrotation Xrotation
					JOINT Neck1
					{
						OFFSET -0.054170 1.746240 0.172020
						CHANNELS 3 Zrotation Yrotation Xrotation
						JOINT Head
						{
							OFFSET 0.104070 1.761360 -0.123970
							CHANNELS 3 Zrotation Yrotation Xrotation
							End Site
							{
								OFFSET 0.000000 0.000000 0.000000
							}
						}
					}
				}
				JOINT LeftShoulder
				{
					OFFSET 0.000000 0.000000 0.000000
					CHANNELS 3 Zrotation Yrotation Xrotation
					JOINT LeftArm
					{
						OFFSET 3.362410 1.200890 -0.311210
						CHANNELS 3 Zrotation Yrotation Xrotation
						JOINT LeftForeArm
						{
							OFFSET 4.983000 -0.000000 -0.000000
							CHANNELS 3 Zrotation Yrotation Xrotation
							JOINT LeftHand
							{
								OFFSET 3.483560 -0.000000 -0.000000
								CHANNELS 3 Zrotation Yrotation Xrotation
								JOINT LeftFingerBase
								{
									OFFSET 0.000000 0.000000 0.000000
									CHANNELS 3 Zrotation Yrotation Xrotation
									JOINT LeftHandIndex1
									{
										OFFSET 0.715260 -0.000000 -0.000000
										CHANNELS 3 Zrotation Yrotation Xrotation
										End Site
										{
											OFFSET 0.000000 0.000000 0.000000
										}
									}
								}
								JOINT LThumb
								{
									OFFSET 0.000000 0.000000 0.000000
									CHANNELS 3 Zrotation Yrotation Xrotation
									End Site
									{
										OFFSET 0.000000 0.000000 0.000000
									}
								}
							}
						}
					}
				}
				JOINT RightShoulder
				{
					OFFSET 0.000000 0.000000 0.000000
					CHANNELS 3 Zrotation Yrotation Xrotation
					JOINT RightArm
					{
						OFFSET -3.136600 1.374050 -0.404650
						CHANNELS 3 Zrotation Yrotation Xrotation
						JOINT RightForeArm
						{
							OFFSET -5.241900 -0.000000 -0.000000
							CHANNELS 3 Zrotation Yrotation Xrotation
							JOINT RightHand
							{
								OFFSET -3.444170 -0.000000 -0.000000
								CHANNELS 3 Zrotation Yrotation Xrotation
								JOINT RightFingerBase
								{
									OFFSET 0.000000 0.000000 0.000000
									CHANNELS 3 Zrotation Yrotation Xrotation
									JOINT RightHandIndex1
									{
										OFFSET -0.622530 -0.000000 -0.000000
										CHANNELS 3 Zrotation Yrotation Xrotation
										End Site
										{
											OFFSET 0.000000 0.000000 0.000000
										}
									}
								}
								JOINT RThumb
								{
									OFFSET 0.000000 0.000000 0.000000
									CHANNELS 3 Zrotation Yrotation Xrotation
									End Site
									{
										OFFSET 0.000000 0.000000 0.000000
									}
								}
							}
						}
					}
				}
			}
		}
	}
}
}
MOTION
Frames: 18
Frame Time: 0.008333
14.555542 16.769650 1.471337 33.493558 -88.602302 4.673688 1.225157 -2.397410 -3.076634 -0.083931 -2.557887 -3.430456 -4.670494 -2.644182 0.976362 8.702597 -19.978765 -13.644800 0.201693 0.150416 -1.899566 0.000000 0.000000 0.000000 8.472698 11.104060 1.551550 -56.738274 31.752737 39.715111 -0.811857 -72.779400 -0.005634 8.363998 -0.484479 -0.040162 -0.209991 0.071875 -0.000000 0.000000 0.000000 0.000000 0.000000 0.000000 0.000000 2.872030 -15.909747 3.098948 69.455648 -21.817213 17.419250 1.657038 57.493364 0.008610 -8.419072 8.498069 -0.651630 0.195335 -0.155768 0.000000 0.000000 0.000000 0.000000 0.000000 0.000000 0.000000 
14.547825 16.661566 1.470573 38.570134 -88.290143 0.905143 1.031474 -2.539302 -3.124046 -0.103787 -2.686504 -3.455788 -4.598339 -2.778620 0.927179 8.768141 -20.054624 -13.876559 0.283521 0.164402 -1.991771 0.000000 0.000000 0.000000 8.573371 11.233782 1.642787 -57.385982 33.399492 38.527875 -0.804471 -73.208520 -0.006398 8.509713 -0.570486 -0.047960 -0.213667 0.078200 -0.000000 0.000000 0.000000 0.000000 0.000000 0.000000 0.000000 2.772625 -15.981717 3.215243 69.709748 -23.275186 16.631458 1.619173 57.908011 0.008805 -8.324591 8.704345 -0.659859 0.192845 -0.158092 0.000000 0.000000 0.000000 0.000000 0.000000 0.000000 0.000000 
14.539696 16.539465 1.470124 42.980297 -87.947566 -2.159202 0.822061 -2.678776 -3.229557 -0.127867 -2.814038 -3.494586 -4.523719 -2.912630 0.876969 8.822208 -20.078639 -14.094315 0.353353 0.177050 -2.079930 0.000000 0.000000 0.000000 8.644200 11.337646 1.739201 -58.105540 34.931963 37.266968 -0.796050 -73.589992 -0.007244 8.748364 -0.720408 -0.061652 -0.218502 0.085835 -0.000000 0.000000 0.000000 0.000000 0.000000 0.000000 0.000000 2.694872 -16.004749 3.328189 69.985165 -24.684780 15.783844 1.584564 58.246485 0.009013 -8.224695 8.932568 -0.668986 0.190175 -0.160667 0.000000 0.000000 0.000000 0.000000 0.000000 0.000000 0.000000 
14.530742 16.403118 1.470379 46.684044 -87.591507 -4.481965 0.610262 -2.809345 -3.400815 -0.154024 -2.935072 -3.548608 -4.448208 -3.040945 0.827608 8.864507 -20.045316 -14.297272 0.408331 0.188009 -2.163398 0.000000 0.000000 0.000000 8.691212 11.405120 1.841589 -58.933461 36.340535 35.896424 -0.788515 -73.886380 -0.008161 9.088062 -0.953799 -0.083834 -0.224481 0.094937 -0.000000 0.000000 0.000000 0.000000 0.000000 0.000000 0.000000 2.645490 -15.972040 3.438978 70.294231 -26.029048 14.847162 1.556348 58.465853 0.009256 -8.115423 9.178949 -0.678316 0.187385 -0.163385 0.000000 0.000000 0.000000 0.000000 0.000000 0.000000 0.000000 
14.520361 16.252480 1.471581 49.777535 -87.233030 -6.161492 0.402889 -2.926742 -3.646577 -0.180552 -3.045912 -3.617975 -4.371063 -3.159947 0.788080 8.897801 -19.963539 -14.490494 0.448837 0.197376 -2.243357 0.000000 0.000000 0.000000 8.740669 11.449144 1.952877 -59.911367 37.576389 34.401085 -0.784314 -74.041920 -0.009152 9.532594 -1.282243 -0.116910 -0.231518 0.105536 -0.000000 0.000000 0.000000 0.000000 0.000000 0.000000 0.000000 2.628734 -15.894232 3.546765 70.642426 -27.273817 13.815024 1.536533 58.527267 0.009534 -7.998086 9.434250 -0.687045 0.184565 -0.166080 0.000000 0.000000 0.000000 0.000000 0.000000 0.000000 0.000000 
14.508466 16.088118 1.474088 52.290454 -86.881329 -7.242747 0.211318 -3.028459 -3.960141 -0.205333 -3.144477 -3.701193 -4.294327 -3.267516 0.759561 8.924715 -19.833950 -14.676632 0.473251 0.205023 -2.320556 0.000000 0.000000 0.000000 8.795517 11.458807 2.075668 -61.073633 38.630209 32.722976 -0.785002 -74.034728 -0.010210 10.059670 -1.707128 -0.162781 -0.239093 0.117560 -0.000000 0.000000 0.000000 0.000000 0.000000 0.000000 0.000000 2.651531 -15.770274 3.652877 71.039432 -28.393643 12.663848 1.526245 58.412374 0.009829 -7.866687 9.687396 -0.693875 0.181711 -0.168721 0.000000 0.000000 0.000000 0.000000 0.000000 0.000000 0.000000 
14.494842 15.910930 1.478178 54.289366 -86.541735 -7.807134 0.042488 -3.113628 -4.331346 -0.227077 -3.229980 -3.795348 -4.219795 -3.362697 0.744826 8.950567 -19.665633 -14.861881 0.481359 0.211046 -2.397008 0.000000 0.000000 0.000000 8.859125 11.436213 2.213026 -62.439959 39.476605 30.820818 -0.791473 -73.849318 -0.011344 10.640803 -2.218096 -0.222153 -0.246594 0.130769 -0.000000 0.000000 0.000000 0.000000 0.000000 0.000000 0.000000 2.722027 -15.608353 3.757600 71.485303 -29.357106 11.387554 1.525249 58.118130 0.010112 -7.720500 9.925180 -0.697705 0.178842 -0.171315 0.000000 0.000000 0.000000 0.000000 0.000000 0.000000 0.000000 
14.479525 15.722305 1.484041 55.828513 -86.216818 -7.929319 -0.098072 -3.182559 -4.743981 -0.245012 -3.302635 -3.896407 -4.150215 -3.445427 0.744844 8.983141 -19.470984 -15.054062 0.472991 0.215597 -2.475378 0.000000 0.000000 0.000000 8.925489 11.388496 2.367208 -64.009095 40.090149 28.665759 -0.803621 -73.486724 -0.012558 11.241098 -2.792756 -0.293930 -0.253313 0.144754 -0.000000 0.000000 0.000000 0.000000 0.000000 0.000000 0.000000 2.851598 -15.419413 3.860722 71.971795 -30.133917 9.992280 1.532101 57.660255 0.010333 -7.564079 10.136122 -0.698136 0.176000 -0.173939 0.000000 0.000000 0.000000 0.000000 0.000000 0.000000 0.000000 
14.462437 15.523870 1.491788 56.967739 -85.906339 -7.686620 -0.207362 -3.236332 -5.181163 -0.258997 -3.363349 -4.000159 -4.088563 -3.516308 0.760035 9.031636 -19.267297 -15.262089 0.448542 0.218911 -2.558779 0.000000 0.000000 0.000000 8.982846 11.332370 2.538673 -65.749734 40.439161 26.263390 -0.820373 -72.958622 -0.013892 11.830940 -3.399133 -0.375016 -0.258665 0.158972 -0.000000 0.000000 0.000000 0.000000 0.000000 0.000000 0.000000 3.052609 -15.219765 3.961209 72.478928 -30.695113 8.503971 1.544308 57.068152 0.010434 -7.411219 10.312603 -0.696066 0.173282 -0.176718 0.000000 0.000000 0.000000 0.000000 0.000000 0.000000 0.000000 
14.443601 15.317705 1.501484 57.743087 -85.608939 -7.133216 -0.280377 -3.276796 -5.620958 -0.269010 -3.413967 -4.102515 -4.039941 -3.576875 0.785285 9.105696 -19.065110 -15.492568 0.406317 0.220965 -2.649789 0.000000 0.000000 0.000000 9.000462 11.278019 2.725652 -67.603172 40.511710 23.632092 -0.839443 -72.299646 -0.015388 12.384617 -3.998980 -0.460613 -0.262160 0.172842 -0.000000 0.000000 0.000000 0.000000 0.000000 0.000000 0.000000 3.342746 -15.017856 4.058423 72.982989 -31.024608 6.948620 1.558652 56.385715 0.010358 -7.280010 10.453906 -0.693195 0.170795 -0.179877 0.000000 0.000000 0.000000 0.000000 0.000000 0.000000 0.000000 
14.422936 15.105916 1.513066 58.210101 -85.321435 -6.338019 -0.315650 -3.305943 -6.047526 -0.275556 -3.456485 -4.200555 -4.008485 -3.628907 0.816435 9.214271 -18.876697 -15.751508 0.345494 0.221795 -2.750727 0.000000 0.000000 0.000000 8.949878 11.245966 2.924030 -69.485281 40.287781 20.840057 -0.858241 -71.540277 -0.017114 12.896176 -4.552085 -0.544823 -0.263651 0.185739 -0.000000 0.000000 0.000000 0.000000 0.000000 0.000000 0.000000 3.736158 -14.825611 4.150731 73.453109 -31.108847 5.372746 1.571743 55.656100 0.010055 -7.198863 10.566059 -0.693020 0.168721 -0.183599 0.000000 0.000000 0.000000 0.000000 0.000000 0.000000 0.000000 
14.400305 14.890841 1.526323 58.421464 -85.040337 -5.363574 -0.312066 -3.325924 -6.447044 -0.279366 -3.493170 -4.292419 -3.998774 -3.674533 0.847042 9.364104 -18.706200 -16.041092 0.264029 0.221217 -2.862737 0.000000 0.000000 0.000000 8.797855 11.250781 3.127915 -71.300151 39.760124 17.976154 -0.873964 -70.712105 -0.019144 13.376121 -5.021485 -0.622546 -0.263241 0.197094 -0.000000 0.000000 0.000000 0.000000 0.000000 0.000000 0.000000 4.246319 -14.647559 4.236599 73.861773 -30.943372 3.822177 1.580544 54.917070 0.009475 -7.199186 10.663292 -0.699543 0.167249 -0.188067 0.000000 0.000000 0.000000 0.000000 0.000000 0.000000 0.000000 
14.375387 14.674717 1.541019 58.435240 -84.762322 -4.273439 -0.269906 -3.338794 -6.810052 -0.281362 -3.526215 -4.377578 -4.014741 -3.715913 0.869709 9.558592 -18.548357 -16.358934 0.159297 0.218864 -2.985495 0.000000 0.000000 0.000000 8.512113 11.299440 3.330596 -72.952488 38.930954 15.141640 -0.884144 -69.839169 -0.021555 13.851918 -5.378033 -0.689882 -0.261261 0.206435 -0.000000 0.000000 0.000000 0.000000 0.000000 0.000000 0.000000 4.882078 -14.479851 4.314670 74.188188 -30.530420 2.338246 1.582877 54.192510 0.008585 -7.311801 10.765593 -0.717361 0.166556 -0.193411 0.000000 0.000000 0.000000 0.000000 0.000000 0.000000 0.000000 
14.348094 14.459916 1.556774 58.309085 -84.484753 -3.129084 -0.190675 -3.346620 -7.130780 -0.282707 -3.557814 -4.456803 -4.060049 -3.755300 0.875621 9.796794 -18.384574 -16.696393 0.027300 0.214069 -3.116610 0.000000 0.000000 0.000000 8.063064 11.383559 3.525503 -74.363095 37.817352 12.427677 -0.886955 -68.936538 -0.024403 14.361241 -5.603182 -0.744829 -0.258143 0.213398 -0.000000 0.000000 0.000000 0.000000 0.000000 0.000000 0.000000 5.648472 -14.305801 4.384018 74.423419 -29.880037 0.946394 1.577784 53.488423 0.007350 -7.560690 10.896304 -0.750674 0.166755 -0.199701 0.000000 0.000000 0.000000 0.000000 0.000000 0.000000 0.000000 
14.317887 14.248582 1.573091 58.109998 -84.205140 -1.999884 -0.080470 -3.351248 -7.408324 -0.284903 -3.589529 -4.531082 -4.135332 -3.794373 0.859945 10.072932 -18.195149 -17.041633 -0.133853 0.206297 -3.252534 0.000000 0.000000 0.000000 7.442686 11.492242 3.706447 -75.476718 36.425752 9.929411 -0.881989 -67.988336 -0.027706 14.950902 -5.694173 -0.787884 -0.254385 0.217753 -0.000000 0.000000 0.000000 0.000000 0.000000 0.000000 0.000000 6.537754 -14.109798 4.443521 74.567115 -28.994629 -0.323981 1.565548 52.781039 0.005746 -7.968757 11.080229 -0.804383 0.167938 -0.206852 0.000000 0.000000 0.000000 0.000000 0.000000 0.000000 0.000000 
14.284702 14.042939 1.589479 57.888361 -83.922384 -0.940074 0.053670 -3.354515 -7.643126 -0.289543 -3.622746 -4.602088 -4.240532 -3.834700 0.816681 10.376425 -17.948693 -17.376278 -0.326918 0.194781 -3.387493 0.000000 0.000000 0.000000 6.650003 11.595665 3.868505 -76.268384 34.776813 7.705761 -0.869562 -66.970045 -0.031421 15.660283 -5.659818 -0.820449 -0.250312 0.219395 -0.000000 0.000000 0.000000 0.000000 0.000000 0.000000 0.000000 7.537085 -13.864061 4.492988 74.630207 -27.882508 -1.465158 1.547463 52.028363 0.003756 -8.544554 11.337462 -0.882189 0.170050 -0.214684 0.000000 0.000000 0.000000 0.000000 0.000000 0.000000 0.000000 
14.248105 13.845118 1.605399 57.684570 -83.635260 0.005556 0.203308 -3.358080 -7.837663 -0.298772 -3.658569 -4.672860 -4.376194 -3.877654 0.736789 10.693077 -17.601739 -17.673906 -0.556677 0.178382 -3.512915 0.000000 0.000000 0.000000 5.688206 11.637900 4.008203 -76.740574 32.914398 5.768713 -0.850030 -65.863750 -0.035443 16.512275 -5.515535 -0.843421 -0.245949 0.218315 -0.000000 0.000000 0.000000 0.000000 0.000000 0.000000 0.000000 8.634471 -13.527284 4.533802 74.634010 -26.564789 -2.497290 1.525211 51.181016 0.001380 -9.278724 11.681341 -0.986594 0.172840 -0.222971 0.000000 0.000000 0.000000 0.000000 0.000000 0.000000 0.000000 
14.208039 13.657000 1.620252 57.534492 -83.343117 0.795082 0.355296 -3.362871 -7.995305 -0.314075 -3.696540 -4.743445 -4.535794 -3.922969 0.623557 11.004499 -17.136251 -17.914264 -0.819723 0.157030 -3.622037 0.000000 0.000000 0.000000 4.602400 11.593866 4.123367 -76.914994 30.830786 4.166022 -0.825358 -64.600205 -0.039610 17.521584 -5.294598 -0.859805 -0.241197 0.214752 -0.000000 0.000000 0.000000 0.000000 0.000000 0.000000 0.000000 9.794975 -13.087696 4.565785 74.592255 -25.028592 -3.399370 1.500406 50.158443 -0.001369 -10.165640 12.118934 -1.120800 0.176027 -0.231257 0.000000 0.000000 0.000000 0.000000 0.000000 0.000000 0.000000 
